<svg xmlns="http://www.w3.org/2000/svg" width="960" height="168" viewBox="0 0 960 168" fill="none" role="img" aria-label="Skills. Python, TypeScript, JavaScript. FastAPI, React, Docker. OpenTelemetry, Dynatrace, OPA.">
  <g font-family="Segoe UI, Helvetica, Arial, sans-serif" font-size="13" font-weight="600" fill="#3D2430">
    <g>
      <rect x="214" y="4" width="168" height="44" rx="10" fill="#FFF6F4" stroke="#E7D5DA"/>
      <text x="298" y="31" text-anchor="middle">Python</text>
      <rect x="396" y="4" width="168" height="44" rx="10" fill="#FFF6F4" stroke="#E7D5DA"/>
      <text x="480" y="31" text-anchor="middle">TypeScript</text>
      <rect x="578" y="4" width="168" height="44" rx="10" fill="#FFF6F4" stroke="#E7D5DA"/>
      <text x="662" y="31" text-anchor="middle">JavaScript</text>
    </g>
    <g>
      <rect x="214" y="62" width="168" height="44" rx="10" fill="#FFF6F4" stroke="#E7D5DA"/>
      <text x="298" y="89" text-anchor="middle">FastAPI</text>
      <rect x="396" y="62" width="168" height="44" rx="10" fill="#FFF6F4" stroke="#E7D5DA"/>
      <text x="480" y="89" text-anchor="middle">React</text>
      <rect x="578" y="62" width="168" height="44" rx="10" fill="#FFF6F4" stroke="#E7D5DA"/>
      <text x="662" y="89" text-anchor="middle">Docker</text>
    </g>
    <g>
      <rect x="166" y="120" width="200" height="44" rx="10" fill="#FFF6F4" stroke="#E7D5DA"/>
      <text x="266" y="147" text-anchor="middle">OpenTelemetry</text>
      <rect x="380" y="120" width="200" height="44" rx="10" fill="#FFF6F4" stroke="#E7D5DA"/>
      <text x="480" y="147" text-anchor="middle">Dynatrace</text>
      <rect x="594" y="120" width="200" height="44" rx="10" fill="#FFF6F4" stroke="#E7D5DA"/>
      <text x="694" y="147" text-anchor="middle">OPA</text>
    </g>
  </g>
</svg>
